<svg width="21" height="20" viewBox="0 0 21 20" fill="none" xmlns="http://www.w3.org/2000/svg">
    <path d="M10.834 0C5.32298 0 0.833984 4.489 0.833984 10C0.833984 15.511 5.32298 20 10.834 20C16.345 20 20.834 15.511 20.834 10C20.834 4.489 16.345 0 10.834 0ZM10.834 2C15.2641 2 18.834 5.56988 18.834 10C18.834 14.4301 15.2641 18 10.834 18C6.40386 18 2.83398 14.4301 2.83398 10C2.83398 5.56988 6.40386 2 10.834 2ZM9.83398 5V9H5.83398V11H9.83398V15H11.834V11H15.834V9H11.834V5H9.83398Z" fill="#003366"/>
</svg>
