<svg width="30" height="30" viewBox="0 0 30 30" fill="none" xmlns="http://www.w3.org/2000/svg">
    <path d="M6.64062 20H10V23.3594H6.64062V20ZM6.64062 13.3594H10V16.6406H6.64062V13.3594ZM6.64062 6.64062H10V10H6.64062V6.64062ZM13.3594 20H23.3594V23.3594H13.3594V20ZM13.3594 13.3594H23.3594V16.6406H13.3594V13.3594ZM13.3594 6.64062H23.3594V10H13.3594V6.64062ZM28.5156 0C28.8802 0 29.2188 0.15625 29.5312 0.46875C29.8438 0.729167 30 1.06771 30 1.48438V28.5156C30 28.8802 29.8438 29.2188 29.5312 29.5312C29.2188 29.8438 28.8802 30 28.5156 30H1.48438C1.06771 30 0.703125 29.8438 0.390625 29.5312C0.130208 29.2188 0 28.8802 0 28.5156V1.48438C0 0.494792 0.494792 0 1.48438 0H28.5156ZM26.6406 3.35938H3.35938V26.6406H26.6406V3.35938Z" fill="#003366"/>
</svg>
