<svg width="28" height="28" viewBox="0 0 28 28" fill="none" xmlns="http://www.w3.org/2000/svg">
<path d="M11.3125 20.6875L23.3125 8.6875L21.4375 6.75L11.3125 16.875L6.5625 12.125L4.6875 14L11.3125 20.6875ZM4.5625 4.625C7.1875 2 10.3333 0.6875 14 0.6875C17.6667 0.6875 20.7917 2 23.375 4.625C26 7.20833 27.3125 10.3333 27.3125 14C27.3125 17.6667 26 20.8125 23.375 23.4375C20.7917 26.0208 17.6667 27.3125 14 27.3125C10.3333 27.3125 7.1875 26.0208 4.5625 23.4375C1.97917 20.8125 0.6875 17.6667 0.6875 14C0.6875 10.3333 1.97917 7.20833 4.5625 4.625Z" fill="#2E8540"/>
</svg>
