<svg width="40" height="40" viewBox="0 0 40 40" fill="none" xmlns="http://www.w3.org/2000/svg">
    <path d="M21.667 5C13.3837 5 6.66699 11.7167 6.66699 20H1.66699L8.15033 26.4833L8.26699 26.7167L15.0003 20H10.0003C10.0003 13.55 15.217 8.33333 21.667 8.33333C28.117 8.33333 33.3337 13.55 33.3337 20C33.3337 26.45 28.117 31.6667 21.667 31.6667C18.4503 31.6667 15.5337 30.35 13.4337 28.2333L11.067 30.6C13.7837 33.3167 17.517 35 21.667 35C29.9503 35 36.667 28.2833 36.667 20C36.667 11.7167 29.9503 5 21.667 5ZM20.0003 13.3333V21.6667L27.1337 25.9L28.3337 23.8833L22.5003 20.4167V13.3333H20.0003Z" fill="#003366"/>
</svg>
