<svg width="40" height="40" viewBox="0 0 35 45" fill="none" xmlns="http://www.w3.org/2000/svg">
    <path d="M19.1562 12.3594V9C19.1562 7.59375 18.6354 6.39583 17.5938 5.40625C16.6042 4.36458 15.4062 3.84375 14 3.84375C12.5938 3.84375 11.3698 4.36458 10.3281 5.40625C9.33854 6.39583 8.84375 7.59375 8.84375 9V12.3594H19.1562ZM11.6562 26.3438C12.3333 27.0208 13.1146 27.3594 14 27.3594C14.8854 27.3594 15.6667 27.0208 16.3438 26.3438C17.0208 25.6667 17.3594 24.8854 17.3594 24C17.3594 23.1146 17.0208 22.3333 16.3438 21.6562C15.6667 20.9792 14.8854 20.6406 14 20.6406C13.1146 20.6406 12.3333 20.9792 11.6562 21.6562C10.9792 22.3333 10.6406 23.1146 10.6406 24C10.6406 24.8854 10.9792 25.6667 11.6562 26.3438ZM24 12.3594C24.8854 12.3594 25.6667 12.6979 26.3438 13.375C27.0208 14 27.3594 14.7552 27.3594 15.6406V32.3594C27.3594 33.2448 27.0208 34.026 26.3438 34.7031C25.6667 35.3281 24.8854 35.6406 24 35.6406H4C3.11458 35.6406 2.33333 35.3281 1.65625 34.7031C0.979167 34.026 0.640625 33.2448 0.640625 32.3594V15.6406C0.640625 14.7552 0.979167 14 1.65625 13.375C2.33333 12.6979 3.11458 12.3594 4 12.3594H5.64062V9C5.64062 6.70833 6.44792 4.75521 8.0625 3.14062C9.72917 1.47396 11.7083 0.640625 14 0.640625C16.2917 0.640625 18.2448 1.47396 19.8594 3.14062C21.526 4.75521 22.3594 6.70833 22.3594 9V12.3594H24Z" fill="#003366"/>
</svg>
