<svg width="128" height="128" viewBox="0 0 128 128" fill="none" xmlns="http://www.w3.org/2000/svg">
    <path d="M32 56H56V64H32V56ZM32 24H80V32H32V24ZM32 40H80V48H32V40ZM32 96H56V104H32V96ZM120 96V88H111.596C111.08 85.4961 110.086 83.1152 108.668 80.988L114.628 75.028L108.972 69.372L103.012 75.332C100.885 73.914 98.5039 72.9199 96 72.404V64H88V72.404C85.4961 72.9199 83.1152 73.914 80.988 75.332L75.028 69.372L69.372 75.028L75.332 80.988C73.914 83.1152 72.9199 85.4961 72.404 88H64V96H72.404C72.9199 98.5039 73.914 100.885 75.332 103.012L69.372 108.972L75.028 114.628L80.988 108.668C83.1152 110.086 85.4961 111.08 88 111.596V120H96V111.596C98.5039 111.08 100.885 110.086 103.012 108.668L108.972 114.628L114.628 108.972L108.668 103.012C110.086 100.885 111.08 98.5039 111.596 96H120ZM92 104C89.6266 104 87.3065 103.296 85.3332 101.978C83.3598 100.659 81.8217 98.7849 80.9134 96.5922C80.0052 94.3995 79.7676 91.9867 80.2306 89.6589C80.6936 87.3311 81.8365 85.1929 83.5147 83.5147C85.1929 81.8365 87.3311 80.6936 89.6589 80.2306C91.9867 79.7676 94.3995 80.0052 96.5922 80.9134C98.7849 81.8217 100.659 83.3598 101.978 85.3332C103.296 87.3065 104 89.6266 104 92C103.997 95.1816 102.732 98.232 100.482 100.482C98.232 102.732 95.1816 103.997 92 104Z" fill="#1A5A96"/>
    <path d="M56 120H24C21.8789 119.998 19.8453 119.154 18.3455 117.655C16.8457 116.155 16.0021 114.121 16 112V16C16.0021 13.8789 16.8457 11.8453 18.3455 10.3455C19.8453 8.84565 21.8789 8.00212 24 8H88C90.1211 8.00212 92.1547 8.84565 93.6545 10.3455C95.1544 11.8453 95.9979 13.8789 96 16V56H88V16H24V112H56V120Z" fill="#1A5A96" fill-opacity="0.3"/>
</svg>
