<svg width="14" height="14" viewBox="0 0 14 14" fill="none" xmlns="http://www.w3.org/2000/svg">
    <path d="M4.75 11.1875C5.54167 11.6042 6.29167 11.8125 7 11.8125C7.70833 11.8125 8.44792 11.6042 9.21875 11.1875C10.0104 10.7708 10.6042 10.2604 11 9.65625C10.9792 9.07292 10.5104 8.58333 9.59375 8.1875C8.67708 7.79167 7.8125 7.59375 7 7.59375C6.1875 7.59375 5.32292 7.79167 4.40625 8.1875C3.48958 8.5625 3.02083 9.05208 3 9.65625C3.39583 10.2604 3.97917 10.7708 4.75 11.1875ZM8.40625 2.9375C8.01042 2.54167 7.54167 2.34375 7 2.34375C6.45833 2.34375 5.98958 2.54167 5.59375 2.9375C5.19792 3.33333 5 3.80208 5 4.34375C5 4.88542 5.19792 5.35417 5.59375 5.75C5.98958 6.14583 6.45833 6.34375 7 6.34375C7.54167 6.34375 8.01042 6.14583 8.40625 5.75C8.80208 5.35417 9 4.88542 9 4.34375C9 3.80208 8.80208 3.33333 8.40625 2.9375ZM2.28125 2.3125C3.59375 1 5.16667 0.34375 7 0.34375C8.83333 0.34375 10.3958 1 11.6875 2.3125C13 3.60417 13.6562 5.16667 13.6562 7C13.6562 8.83333 13 10.4062 11.6875 11.7188C10.3958 13.0104 8.83333 13.6562 7 13.6562C5.16667 13.6562 3.59375 13.0104 2.28125 11.7188C0.989583 10.4062 0.34375 8.83333 0.34375 7C0.34375 5.16667 0.989583 3.60417 2.28125 2.3125Z" fill="#313132"/>
</svg>
